<?xml version="1.0" encoding="UTF-8"?>
<svg version="1.1" xmlns="http://www.w3.org/2000/svg" width="281" height="281">
<path d="M0 0 C11.64726938 11.46899485 24.08961324 27.26305693 28.109375 43.5546875 C29.04806157 46.52910388 29.04806157 46.52910388 32.08203125 47.46875 C33.16355469 47.66855469 34.24507812 47.86835938 35.359375 48.07421875 C41.26876849 49.23361224 41.26876849 49.23361224 42.296875 50.26171875 C42.859375 52.94921875 42.859375 52.94921875 42.296875 56.26171875 C37.51805858 61.00604805 31.35283413 63.99247384 25.296875 66.76171875 C24.46293213 67.1477124 23.62898926 67.53370605 22.76977539 67.93139648 C-34.56282103 94.10984125 -110.08327241 111.30092904 -172.890625 111.57421875 C-173.94725342 111.57977783 -175.00388184 111.58533691 -176.0925293 111.59106445 C-191.51927948 111.44556427 -191.51927948 111.44556427 -194.703125 108.26171875 C-195.140625 105.51171875 -195.140625 105.51171875 -194.703125 102.26171875 C-192.88319419 100.10020093 -191.0834914 98.8803679 -188.703125 97.26171875 C-188.043125 97.26171875 -187.383125 97.26171875 -186.703125 97.26171875 C-186.72669067 95.83460571 -186.72669067 95.83460571 -186.75073242 94.37866211 C-186.80596119 90.77230656 -186.83980439 87.16598633 -186.86791992 83.55932617 C-186.8827989 82.0127123 -186.90310863 80.46613897 -186.92944336 78.91967773 C-187.16765322 64.54768287 -185.58139481 51.41805937 -179.953125 38.01171875 C-179.42380371 36.73035034 -179.42380371 36.73035034 -178.88378906 35.4230957 C-176.11025073 28.88110873 -172.98707672 22.95454178 -168.703125 17.26171875 C-168.2592041 16.6702002 -167.8152832 16.07868164 -167.35791016 15.46923828 C-161.72739863 8.03190695 -156.13493298 0.9764303 -148.703125 -4.73828125 C-147.76210937 -5.51429687 -146.82109375 -6.2903125 -145.8515625 -7.08984375 C-102.70436291 -42.21776584 -39.90065245 -37.35796382 0 0 Z " fill="#07E0FD" transform="translate(225.703125,123.73828125)"/>
<path d="M0 0 C2.14681531 0.47474775 4.29243228 0.95491749 6.4375 1.4375 C7.63246094 1.70433594 8.82742188 1.97117188 10.05859375 2.24609375 C13 3 13 3 14 4 C14.5625 6.6875 14.5625 6.6875 14 10 C9.22118358 14.7443293 3.05595913 17.73075509 -3 20.5 C-3.83394287 20.88599365 -4.66788574 21.2719873 -5.52709961 21.66967773 C-62.85969603 47.8481225 -138.38014741 65.03921029 -201.1875 65.3125 C-202.24412842 65.31805908 -203.30075684 65.32361816 -204.3894043 65.3293457 C-219.81615448 65.18384552 -219.81615448 65.18384552 -223 62 C-223.5625 59.3125 -223.5625 59.3125 -223 56 C-218.55235289 50.81320237 -212.37874045 48.8568737 -206.03125 46.94140625 C-203.14396385 46.04471042 -200.41062443 44.98296569 -197.625 43.8125 C-194.09191189 42.35937505 -190.82721868 41.40286512 -187 41 C-187 40.34 -187 39.68 -187 39 C-175.70210022 34.83487566 -164.33151067 31.11434264 -152.75 27.8125 C-151.62819336 27.49216797 -150.50638672 27.17183594 -149.35058594 26.84179688 C-141.27073617 24.56809386 -133.14765151 22.50678337 -124.99951172 20.49655151 C-121.80071976 19.70217508 -118.60801701 18.88388644 -115.4140625 18.0703125 C-99.22853698 14.00407949 -83.05498755 10.55700129 -66.59033203 7.81494141 C-65.89392105 7.69852798 -65.19751007 7.58211456 -64.47999573 7.46217346 C-62.59557387 7.14931357 -60.71005183 6.84310082 -58.82446289 6.53735352 C-56.06248702 6.14464652 -56.06248702 6.14464652 -54 5 C-36.08280071 2.20422191 -18.09979433 1.53034466 0 2 C0 1.34 0 0.68 0 0 Z " fill="#FBF406" transform="translate(254,170)"/>
<path d="M0 0 C9.44323516 6.72199755 14.73052249 15.17956266 16.671875 26.64453125 C17.70777064 35.33926187 15.66348195 44.31287246 10.68359375 51.5234375 C3.41453125 59.94751511 -5.1934666 65.90685415 -16.47265625 66.9296875 C-28.71508081 67.25748234 -38.1245665 63.6950359 -47.078125 55.33203125 C-53.36042706 48.70627759 -56.26181691 40.57542173 -56.36328125 31.5 C-55.75240413 18.70137927 -51.17877618 10.96820926 -41.890625 2.39453125 C-28.64695081 -6.64992917 -14.16968377 -8.24979911 0 0 Z " fill="#FEF402" transform="translate(81.328125,38.35546875)"/>
<path d="M0 0 C-3.80617309 1.4330196 -6.1812869 0.50147813 -9.9375 -0.8125 C-21.14802712 -4.3806083 -31.42013644 -5.180969 -43.125 -5.25 C-44.22158936 -5.2593457 -45.31817871 -5.26869141 -46.44799805 -5.27832031 C-57.89992469 -5.77762482 -57.89992469 -5.77762482 -68 -2 C-70.33297433 -1.95907063 -72.66705225 -1.95758277 -75 -2 C-75 -1.34 -75 -0.68 -75 0 C-76.98 0 -78.96 0 -81 0 C-81 0.66 -81 1.32 -81 2 C-81.67546875 2.18175781 -82.3509375 2.36351563 -83.046875 2.55078125 C-83.93890625 2.80214844 -84.8309375 3.05351563 -85.75 3.3125 C-86.63171875 3.55613281 -87.5134375 3.79976562 -88.421875 4.05078125 C-91.08345352 5.03072607 -92.76031527 6.29357354 -95 8 C-97.359375 8.94921875 -97.359375 8.94921875 -99.75 9.6875 C-100.54921875 9.93886719 -101.3484375 10.19023438 -102.171875 10.44921875 C-102.77515625 10.63097656 -103.3784375 10.81273438 -104 11 C-100.75988813 7.3262368 -97.08967155 5.19747792 -92.75 3.0625 C-92.05269775 2.71695068 -91.35539551 2.37140137 -90.63696289 2.01538086 C-63.26106835 -11.12835975 -28.02747668 -11.97993536 0 0 Z " fill="#4AD5E1" transform="translate(192,101)"/>
<path d="M0 0 C0 3.38023517 -0.87455622 5.83468937 -2 9 C-2.99 9 -3.98 9 -5 9 C-5.33 10.65 -5.66 12.3 -6 14 C-6.66 14 -7.32 14 -8 14 C-8.2475 14.639375 -8.495 15.27875 -8.75 15.9375 C-9.71776353 18.30852065 -10.74165748 20.61372838 -11.8125 22.9375 C-13.54766474 26.8497441 -15.12513239 30.80400426 -16.625 34.8125 C-17.02976562 35.89144531 -17.43453125 36.97039062 -17.8515625 38.08203125 C-21.03525658 48.03408252 -21.36543526 58.38904075 -21.625 68.75 C-21.66367187 70.03132813 -21.70234375 71.31265625 -21.7421875 72.6328125 C-21.83538936 75.7550747 -21.9211969 78.87734693 -22 82 C-19.69 82 -17.38 82 -15 82 C-15.495 82.99 -15.495 82.99 -16 84 C-18.32156597 84.40729228 -20.6568787 84.74438677 -23 85 C-23.07547261 80.57498261 -23.12920892 76.15032916 -23.16479492 71.72485352 C-23.17966572 70.22674008 -23.19996866 68.7286684 -23.22631836 67.23071289 C-23.46963078 53.01840507 -21.80910132 40.0020266 -16.25 26.75 C-15.72829224 25.47842041 -15.72829224 25.47842041 -15.19604492 24.18115234 C-11.39641696 15.17354011 -6.50793306 7.29677343 0 0 Z " fill="#41CDD5" transform="translate(62,135)"/>
<path d="M0 0 C0.33 0 0.66 0 1 0 C1.74946682 8.05676827 -0.40090476 16.22646093 -4.98828125 22.88671875 C-12.27027864 31.30063284 -20.86182495 37.262004 -32.14453125 38.28515625 C-38.8254327 38.46403953 -44.94369899 38.0212211 -51 35 C-51.66 34.34 -52.32 33.68 -53 33 C-49.77272455 33.47228421 -46.79936673 34.06435407 -43.6875 35.0625 C-35.48859216 37.1469681 -26.83063319 36.27396208 -19 33 C-17.78235084 31.01334258 -17.78235084 31.01334258 -17 29 C-15.33333333 28.33333333 -13.66666667 27.66666667 -12 27 C-10.65589738 24.98264795 -10.65589738 24.98264795 -10 23 C-9.01 23 -8.02 23 -7 23 C-6.67 21.35 -6.34 19.7 -6 18 C-5.34 18 -4.68 18 -4 18 C-3.79503906 16.78441406 -3.59007812 15.56882812 -3.37890625 14.31640625 C-3.10698039 12.73173486 -2.83483357 11.14710137 -2.5625 9.5625 C-2.42779297 8.76005859 -2.29308594 7.95761719 -2.15429688 7.13085938 C-1.11328125 1.11328125 -1.11328125 1.11328125 0 0 Z " fill="#EEE943" transform="translate(97,67)"/>
<path d="M0 0 C-2.57987431 1.54792459 -5.1072957 3.05245568 -7.8125 4.375 C-8.534375 4.91125 -9.25625 5.4475 -10 6 C-10.41780879 8.62694422 -10.41780879 8.62694422 -10 11 C-6.13676662 12.28774446 -2.42509463 12.23382793 1.60546875 12.31640625 C2.86427605 12.3475779 2.86427605 12.3475779 4.14851379 12.37937927 C6.82809294 12.44474018 9.50776969 12.50369714 12.1875 12.5625 C14.00456737 12.60569802 15.82162488 12.64931273 17.63867188 12.69335938 C22.09234799 12.8004078 26.54612226 12.90171319 31 13 C31 13.33 31 13.66 31 14 C23.64406166 14.97403845 16.41583701 15.1832478 9 15.1875 C7.31390625 15.20586914 7.31390625 15.20586914 5.59375 15.22460938 C-0.92696546 15.23603586 -6.71090967 14.76225552 -13 13 C-14 12 -14 12 -14.5625 9.3125 C-13.90435564 5.436761 -13.26086348 5.00011128 -10.25 2.6875 C-3.76958525 -1.88479263 -3.76958525 -1.88479263 0 0 Z " fill="#EEE833" transform="translate(45,220)"/>
<path d="M0 0 C-2.72885681 1.81923788 -4.2302085 2.46311257 -7.3125 3.2265625 C-8.20670654 3.45005371 -9.10091309 3.67354492 -10.0222168 3.90380859 C-11.00488525 4.14180176 -11.98755371 4.37979492 -13 4.625 C-14.54071167 5.00325928 -14.54071167 5.00325928 -16.11254883 5.38916016 C-19.73882525 6.27170673 -23.36848037 7.13934768 -27 8 C-27.72282166 8.17136475 -28.44564331 8.34272949 -29.19036865 8.51928711 C-33.90041541 9.63368359 -38.61302538 10.73654183 -43.32836914 11.82830811 C-44.89644279 12.19168479 -46.4641549 12.55662529 -48.03149414 12.92315674 C-50.25280075 13.44144195 -52.47570215 13.9522282 -54.69921875 14.4609375 C-55.69474007 14.69487213 -55.69474007 14.69487213 -56.71037292 14.93353271 C-60.20487661 15.72361257 -63.41686121 16.16864851 -67 16 C-64.77123365 13.77123365 -63.90343235 13.57844191 -60.90234375 12.96484375 C-59.70061523 12.71057617 -59.70061523 12.71057617 -58.47460938 12.45117188 C-57.63736328 12.28166016 -56.80011719 12.11214844 -55.9375 11.9375 C-54.27927634 11.59568991 -52.62168338 11.25080076 -50.96484375 10.90234375 C-50.2287085 10.75273193 -49.49257324 10.60312012 -48.73413086 10.44897461 C-46.98292909 10.15203126 -46.98292909 10.15203126 -46 9 C-43.48123289 8.52527439 -40.96728482 8.09494329 -38.4375 7.6875 C-29.09361627 6.1164572 -20.02514848 3.84661046 -10.86376953 1.43847656 C-7.14293566 0.47962998 -3.85437549 -0.24089847 0 0 Z " fill="#F3F151" transform="translate(191,210)"/>
<path d="M0 0 C3.97100631 3.42788661 5.89946377 7.29602996 8.125 11.9375 C8.47175781 12.64068359 8.81851563 13.34386719 9.17578125 14.06835938 C14.11723646 24.16899675 14.11723646 24.16899675 14 30 C13.35788574 30.01981934 12.71577148 30.03963867 12.05419922 30.06005859 C-3.02759517 30.54484012 -17.98860513 31.46457431 -33 33 C-29.46617202 30.64411468 -26.48666884 30.31383031 -22.375 29.875 C-21.60752441 29.79008301 -20.84004883 29.70516602 -20.04931641 29.61767578 C-9.06952506 28.54621372 1.98282866 28.82597421 13 29 C12.65864014 28.32163086 12.31728027 27.64326172 11.96557617 26.94433594 C11.292323 25.60290527 11.292323 25.60290527 10.60546875 24.234375 C10.16098389 23.34975586 9.71649902 22.46513672 9.25854492 21.55371094 C6.76598953 16.49607186 4.70621565 11.38114165 3 6 C2.34 6 1.68 6 1 6 C0.505 3.03 0.505 3.03 0 0 Z " fill="#40DACE" transform="translate(240,142)"/>
<path d="M0 0 C3.25 2.25 3.25 2.25 5 4 C4.01 4.33 3.02 4.66 2 5 C0.63461347 4.04422943 -0.69481525 3.03647024 -2 2 C-6.25144265 -0.17226997 -10.19921478 -0.27052796 -14.875 -0.1875 C-15.89787109 -0.1865332 -15.89787109 -0.1865332 -16.94140625 -0.18554688 C-23.07881898 -0.13294048 -28.99726638 0.72669287 -35 2 C-26.40690602 -7.86409824 -10.38961462 -4.52919872 0 0 Z " fill="#F3EB4A" transform="translate(79,37)"/>
<path d="M0 0 C2.14681531 0.47474775 4.29243228 0.95491749 6.4375 1.4375 C8.22994141 1.83775391 8.22994141 1.83775391 10.05859375 2.24609375 C13 3 13 3 14 4 C14.5625 6.6875 14.5625 6.6875 14 10 C10.12556736 13.99941434 5.08355285 16.82133449 0 19 C-0.66 19 -1.32 19 -2 19 C-2 18.34 -2 17.68 -2 17 C-1.01 17 -0.02 17 1 17 C1 16.34 1 15.68 1 15 C2.98 14.67 4.96 14.34 7 14 C7 13.34 7 12.68 7 12 C7.66 11.54625 8.32 11.0925 9 10.625 C9.66 10.08875 10.32 9.5525 11 9 C11 7.68 11 6.36 11 5 C7.2486535 3.82874626 3.50368388 3.77940135 -0.390625 3.68359375 C-1.09523865 3.66281265 -1.79985229 3.64203156 -2.52581787 3.62062073 C-4.76711681 3.55546163 -7.00852864 3.49639752 -9.25 3.4375 C-10.77344897 3.39428274 -12.29688671 3.35066743 -13.8203125 3.30664062 C-17.54675591 3.19981509 -21.27332494 3.09845361 -25 3 C-25 2.67 -25 2.34 -25 2 C-16.75 2 -8.5 2 0 2 C0 1.34 0 0.68 0 0 Z " fill="#DCEF5E" transform="translate(254,170)"/>
<path d="M0 0 C-1 1 -1 1 -4.5625 1.0625 C-5.696875 1.041875 -6.83125 1.02125 -8 1 C-8 1.66 -8 2.32 -8 3 C-9.134375 3.28875 -10.26875 3.5775 -11.4375 3.875 C-12.613125 4.24625 -13.78875 4.6175 -15 5 C-15.33 5.66 -15.66 6.32 -16 7 C-16.928125 6.979375 -17.85625 6.95875 -18.8125 6.9375 C-22.02286011 6.84230396 -22.02286011 6.84230396 -25 8 C-26.72795352 8.06802967 -28.45835365 8.08495645 -30.1875 8.0625 C-31.53908203 8.04896484 -31.53908203 8.04896484 -32.91796875 8.03515625 C-33.60503906 8.02355469 -34.29210937 8.01195312 -35 8 C-30.43469454 4.95646303 -25.31802592 4.11623206 -20.03051758 2.8034668 C-18.07005977 2.31438596 -16.11424582 1.80914603 -14.15820312 1.30273438 C-12.92134766 0.99271484 -11.68449219 0.68269531 -10.41015625 0.36328125 C-9.27715088 0.07751221 -8.14414551 -0.20825684 -6.97680664 -0.50268555 C-4.16710754 -0.9720825 -2.63678734 -0.9647961 0 0 Z " fill="#D3F537" transform="translate(160,185)"/>
<path d="M0 0 C1.16202329 3.62014948 0.99965705 6.91039134 0.875 10.6875 C0.82594918 18.5683324 2.27336022 24.19930482 6.25 30.9375 C6.8275 31.948125 7.405 32.95875 8 34 C7.67 34.66 7.34 35.32 7 36 C-0.14814802 28.08597898 -2.16815005 19.51584517 -2 9 C-1.56258036 5.86010651 -0.88067028 3.05644391 0 0 Z " fill="#F2EF66" transform="translate(27,57)"/>
<path d="M0 0 C0 3.38023517 -0.87455622 5.83468937 -2 9 C-2.99 9 -3.98 9 -5 9 C-5.33 10.65 -5.66 12.3 -6 14 C-6.66 14 -7.32 14 -8 14 C-8.268125 14.680625 -8.53625 15.36125 -8.8125 16.0625 C-10.16053306 19.39710809 -11.57536298 22.69743237 -13 26 C-13.66 26 -14.32 26 -15 26 C-12.20533583 15.97208738 -6.90129198 7.73781222 0 0 Z " fill="#36D8E5" transform="translate(62,135)"/>
<path d="M0 0 C-0.639375 0.28875 -1.27875 0.5775 -1.9375 0.875 C-4.15206079 1.82823451 -4.15206079 1.82823451 -5 4 C-7.45516759 4.85416577 -9.94086878 5.47068248 -12.45703125 6.12109375 C-15.13842881 7.04784406 -16.76262234 8.28984599 -19 10 C-21.359375 10.94921875 -21.359375 10.94921875 -23.75 11.6875 C-24.94882813 12.06455078 -24.94882813 12.06455078 -26.171875 12.44921875 C-26.77515625 12.63097656 -27.3784375 12.81273438 -28 13 C-24.58161085 9.05025502 -20.74313379 7.10356732 -16.125 4.875 C-15.43019531 4.52824219 -14.73539063 4.18148437 -14.01953125 3.82421875 C-3.09294872 -1.54647436 -3.09294872 -1.54647436 0 0 Z " fill="#50D6DE" transform="translate(116,99)"/>
<path d="M0 0 C-3.32182457 2.21454972 -6.16421335 3.04618501 -10 4.125 C-11.2375 4.47820312 -12.475 4.83140625 -13.75 5.1953125 C-17 6 -17 6 -20 6 C-20 5.34 -20 4.68 -20 4 C-18.02 3.67 -16.04 3.34 -14 3 C-14 2.34 -14 1.68 -14 1 C-9.23692563 0.04738513 -4.8333472 -0.08333357 0 0 Z " fill="#F3F13F" transform="translate(212,204)"/>
<path d="M0 0 C4.8819882 4.0683235 7.45132656 8.81536254 9 15 C8.6015625 17.30859375 8.6015625 17.30859375 8 19 C7.34 17.68 6.68 16.36 6 15 C5.01 15.495 5.01 15.495 4 16 C3.67 12.04 3.34 8.08 3 4 C2.34 4 1.68 4 1 4 C0.67 2.68 0.34 1.36 0 0 Z " fill="#F1EB39" transform="translate(88,45)"/>
<path d="M0 0 C0.33 0 0.66 0 1 0 C1 8.25 1 16.5 1 25 C3.31 25 5.62 25 8 25 C7.67 25.66 7.34 26.32 7 27 C4.69 27.33 2.38 27.66 0 28 C0 18.76 0 9.52 0 0 Z " fill="#30D3D2" transform="translate(39,192)"/>
<path d="M0 0 C-3.96287499 2.40174242 -7.97215247 4.70965533 -12 7 C-11.67 8.98 -11.34 10.96 -11 13 C-11.99 12.67 -12.98 12.34 -14 12 C-14.5 9.375 -14.5 9.375 -14 6 C-10.5787872 2.45660103 -5.06183202 -2.53091601 0 0 Z " fill="#E5EF64" transform="translate(45,220)"/>
<path d="M0 0 C0 4.20156541 -2.21237735 6.11923483 -5 9 C-11.8967033 15.44835165 -11.8967033 15.44835165 -15 17 C-11.94582417 10.12810438 -6.59988635 5.76695131 -1 1 C-0.67 0.67 -0.34 0.34 0 0 Z " fill="#45D8E3" transform="translate(78,118)"/>
<path d="M0 0 C4.53847198 1.34927545 8.31932246 3.19159348 12.375 5.625 C13.43460938 6.25664063 14.49421875 6.88828125 15.5859375 7.5390625 C16.38257813 8.02117187 17.17921875 8.50328125 18 9 C15 10 15 10 12 9 C12 8.34 12 7.68 12 7 C9.03 6.505 9.03 6.505 6 6 C6 5.34 6 4.68 6 4 C4.02 3.34 2.04 2.68 0 2 C0 1.34 0 0.68 0 0 Z " fill="#42D4DF" transform="translate(192,102)"/>
<path d="M0 0 C1.51400391 0.01740234 1.51400391 0.01740234 3.05859375 0.03515625 C4.07050781 0.04417969 5.08242187 0.05320313 6.125 0.0625 C7.29869141 0.07990234 7.29869141 0.07990234 8.49609375 0.09765625 C8.49609375 0.42765625 8.49609375 0.75765625 8.49609375 1.09765625 C5.93459747 1.60333354 3.3720991 2.10235757 0.80859375 2.59765625 C-0.27325195 2.81228516 -0.27325195 2.81228516 -1.37695312 3.03125 C-5.14231984 3.75337512 -8.64864438 4.28015385 -12.50390625 4.09765625 C-12.50390625 3.43765625 -12.50390625 2.77765625 -12.50390625 2.09765625 C-11.54677734 2.00677734 -11.54677734 2.00677734 -10.5703125 1.9140625 C-9.33087891 1.78837891 -9.33087891 1.78837891 -8.06640625 1.66015625 C-7.24269531 1.57894531 -6.41898438 1.49773437 -5.5703125 1.4140625 C-2.92454739 1.00894535 -2.81847556 0.10992494 0 0 Z " fill="#29DDCB" transform="translate(189.50390625,175.90234375)"/>
<path d="M0 0 C0.33 0.99 0.66 1.98 1 3 C0.21625 3.515625 -0.5675 4.03125 -1.375 4.5625 C-4.55594248 7.5162323 -5.11493693 9.81606548 -6 14 C-6.99 14 -7.98 14 -9 14 C-8.10870633 8.20659113 -4.16559102 3.8680488 0 0 Z " fill="#F3F150" transform="translate(37,43)"/>
<path d="M0 0 C-2.71182212 2.60334924 -3.89133813 2.99456691 -7.75 3.1875 C-8.8225 3.125625 -9.895 3.06375 -11 3 C-11 3.66 -11 4.32 -11 5 C-12.65 5 -14.3 5 -16 5 C-10.36715811 0.57419566 -7.11290272 -0.23709676 0 0 Z " fill="#35D5E5" transform="translate(128,96)"/>
<path d="M0 0 C0.6875 1.6875 0.6875 1.6875 1 4 C-0.3125 6.4375 -0.3125 6.4375 -2 9 C-2.69822617 10.65369357 -3.37498605 12.31727014 -4 14 C-4.66 14 -5.32 14 -6 14 C-4.45941767 8.98491285 -2.97068161 4.3852919 0 0 Z " fill="#4DD9E6" transform="translate(53,147)"/>
<path d="M0 0 C3.67758005 3.28355362 5.81389118 6.62778237 8 11 C7.67 11.66 7.34 12.32 7 13 C4.49962266 10.82575883 3.56371414 9.26954202 3 6 C2.34 6 1.68 6 1 6 C0.67 4.02 0.34 2.04 0 0 Z " fill="#49D3DE" transform="translate(240,142)"/>
<path d="M0 0 C-1.76505435 0.86604534 -3.53728074 1.71748642 -5.3125 2.5625 C-6.79169922 3.27599609 -6.79169922 3.27599609 -8.30078125 4.00390625 C-11 5 -11 5 -14 4 C-5.16 -1.72 -5.16 -1.72 0 0 Z " fill="#F2F044" transform="translate(252,190)"/>
<path d="M0 0 C-0.639375 0.28875 -1.27875 0.5775 -1.9375 0.875 C-4.15206079 1.82823451 -4.15206079 1.82823451 -5 4 C-7.31 4 -9.62 4 -12 4 C-11 2 -11 2 -9.00390625 1.11328125 C-7.79541016 0.71689453 -7.79541016 0.71689453 -6.5625 0.3125 C-5.75941406 0.04050781 -4.95632812 -0.23148437 -4.12890625 -0.51171875 C-2 -1 -2 -1 0 0 Z " fill="#5ED7E8" transform="translate(116,99)"/>
<path d="M0 0 C-1.4096347 0.70180531 -2.82807641 1.38593958 -4.25 2.0625 C-5.03890625 2.44535156 -5.8278125 2.82820313 -6.640625 3.22265625 C-9.25993522 4.08564091 -10.44855176 3.93045933 -13 3 C-11.5903653 2.29819469 -10.17192359 1.61406042 -8.75 0.9375 C-7.96109375 0.55464844 -7.1721875 0.17179687 -6.359375 -0.22265625 C-3.74006478 -1.08564091 -2.55144824 -0.93045933 0 0 Z " fill="#F3F272" transform="translate(57,35)"/>
<path d="M0 0 C0.66 0.33 1.32 0.66 2 1 C1.01 2.485 1.01 2.485 0 4 C-0.99 4 -1.98 4 -3 4 C-3 4.66 -3 5.32 -3 6 C-4.32 5.67 -5.64 5.34 -7 5 C-4.69 3.35 -2.38 1.7 0 0 Z " fill="#3DD5E2" transform="translate(86,112)"/>
<path d="M0 0 C0 3 0 3 -2.5 5.6875 C-3.325 6.450625 -4.15 7.21375 -5 8 C-5.66 7.67 -6.32 7.34 -7 7 C-4.66666667 4.66666667 -2.33333333 2.33333333 0 0 Z " fill="#3ED5D9" transform="translate(78,118)"/>
<path d="M0 0 C3.465 1.98 3.465 1.98 7 4 C6.34 4.66 5.68 5.32 5 6 C3.0625 5.25 3.0625 5.25 1 4 C0.25 1.875 0.25 1.875 0 0 Z " fill="#2ACCE1" transform="translate(210,112)"/>
<path d="M0 0 C1.32 0 2.64 0 4 0 C3.67 0.99 3.34 1.98 3 3 C1.35 3.33 -0.3 3.66 -2 4 C-1.34 2.68 -0.68 1.36 0 0 Z " fill="#F4EE38" transform="translate(80,96)"/>
</svg>
